<svg xmlns="http://www.w3.org/2000/svg" viewBox="0 0 71.01 113.01"><defs><style>.cls-1{fill:#ffb324}</style></defs><g id="Layer_2" data-name="Layer 2"><g id="Layer_1-2" data-name="Layer 1"><circle cx="4" cy="4" r="4" class="cls-1"/><circle cx="25" cy="4" r="4" class="cls-1"/><circle cx="46.01" cy="4" r="4" class="cls-1"/><circle cx="67.01" cy="4" r="4" class="cls-1"/><circle cx="4" cy="25" r="4" class="cls-1"/><circle cx="25" cy="25" r="4" class="cls-1"/><circle cx="46.01" cy="25" r="4" class="cls-1"/><circle cx="67.01" cy="25" r="4" class="cls-1"/><circle cx="4" cy="46.01" r="4" class="cls-1"/><circle cx="25" cy="46.01" r="4" class="cls-1"/><circle cx="46.01" cy="46.01" r="4" class="cls-1"/><circle cx="67.01" cy="46.01" r="4" class="cls-1"/><circle cx="4" cy="67.01" r="4" class="cls-1"/><circle cx="25" cy="67.01" r="4" class="cls-1"/><circle cx="46.01" cy="67.01" r="4" class="cls-1"/><circle cx="67.01" cy="67.01" r="4" class="cls-1"/><circle cx="4" cy="88.01" r="4" class="cls-1"/><circle cx="25" cy="88.01" r="4" class="cls-1"/><circle cx="46.01" cy="88.01" r="4" class="cls-1"/><circle cx="67.01" cy="88.01" r="4" class="cls-1"/><circle cx="4" cy="109.01" r="4" class="cls-1"/><circle cx="25" cy="109.01" r="4" class="cls-1"/><circle cx="46.01" cy="109.01" r="4" class="cls-1"/><circle cx="67.01" cy="109.01" r="4" class="cls-1"/></g></g></svg>